<svg width="768" height="627" viewBox="0 0 768 627" fill="none" xmlns="http://www.w3.org/2000/svg">
<path d="M638.514 1.10493C616.482 -3.60505 594.856 10.459 590.212 32.5186C585.58 54.5818 599.685 76.2837 621.717 80.9937C643.754 85.7121 665.384 71.6348 670.024 49.5884C674.664 27.5204 660.554 5.81007 638.514 1.10493ZM553.303 83.4155C560.678 92.7258 570.08 100.227 581.072 104.718L617.565 119.595C636.382 127.269 657.511 127.822 676.361 120.308C680.844 118.515 685.59 117.196 690.554 116.412C727.776 110.517 762.738 136.868 767.063 174.829C770.922 208.715 748.054 240.323 714.733 247.19C669.851 256.456 648.808 223.703 640.089 201.713C635.187 189.374 625.401 179.62 613.115 174.612L582.314 162.046C563.127 154.215 541.867 167.016 539.783 187.631L537.373 211.546C534.543 239.689 543.666 267.525 561.732 289.336C570.919 300.432 577.356 314.056 579.807 329.31C587.205 375.382 555.365 418.594 508.958 424.811C465.902 430.583 423.33 399.255 415.882 356.347C410.484 325.252 423.014 295.337 445.915 277.078C467.893 259.542 482.216 234.144 485.039 206.106L489.615 160.711C490.829 148.692 489.047 136.511 484.083 125.496C482.615 122.257 481.563 118.79 480.975 115.121C478.378 98.9555 485.623 83.5103 498.271 74.8872L502.186 72.5371C506.03 70.5082 510.269 69.0463 514.804 68.3309C529.908 65.9357 544.415 72.1803 553.303 83.4155Z" fill="url(#paint0_linear_1_114)"/>
<path d="M143.859 545.819C121.827 541.109 100.201 555.173 95.5618 577.241C90.921 599.288 105.03 620.998 127.063 625.708C149.108 630.422 170.725 616.362 175.365 594.294C180.009 572.235 165.905 550.533 143.859 545.819ZM209.647 548.832C202.761 539.15 193.739 531.183 182.994 526.135L147.3 509.409C128.893 500.781 107.819 499.145 88.6104 505.69C84.0436 507.241 79.227 508.32 74.2332 508.841C36.7565 512.824 3.18333 484.719 0.800631 446.6C-1.32468 412.563 23.1313 382.178 56.7635 377.011C102.055 370.061 121.414 403.843 129.001 426.251C133.258 438.828 142.537 449.076 154.552 454.7L184.681 468.83C203.441 477.623 225.338 465.944 228.469 445.462L232.091 421.709C236.368 393.75 228.657 365.479 211.735 342.785C203.126 331.22 197.4 317.298 195.727 301.941C190.69 255.548 224.692 214.031 271.362 210.203C314.67 206.648 355.59 240.105 360.842 283.33C364.65 314.671 350.599 343.886 326.793 360.966C303.943 377.338 288.337 401.965 284.089 429.818L277.197 474.916C275.369 486.841 276.536 499.097 280.938 510.359C282.219 513.66 283.101 517.181 283.5 520.87C285.267 537.145 277.252 552.206 264.174 560.16L260.147 562.317C256.195 564.14 251.887 565.384 247.324 565.858C232.108 567.478 217.946 560.497 209.647 548.832Z" fill="url(#paint1_linear_1_114)"/>
<defs>
<linearGradient id="paint0_linear_1_114" x1="680.667" y1="14.0156" x2="73.3043" y2="533.62" gradientUnits="userSpaceOnUse">
<stop stop-color="white" stop-opacity="0.652873"/>
<stop offset="0.403152" stop-color="#C7C7C7" stop-opacity="0.779455"/>
<stop offset="0.541007" stop-color="#EBEBEB" stop-opacity="0.692871"/>
<stop offset="0.819808" stop-color="#A4A4A4" stop-opacity="0.645026"/>
<stop offset="1" stop-opacity="0"/>
</linearGradient>
<linearGradient id="paint1_linear_1_114" x1="680.667" y1="14.0156" x2="73.3043" y2="533.62" gradientUnits="userSpaceOnUse">
<stop stop-color="white" stop-opacity="0.652873"/>
<stop offset="0.403152" stop-color="#C7C7C7" stop-opacity="0.779455"/>
<stop offset="0.541007" stop-color="#EBEBEB" stop-opacity="0.692871"/>
<stop offset="0.819808" stop-color="#A4A4A4" stop-opacity="0.645026"/>
<stop offset="1" stop-opacity="0"/>
</linearGradient>
</defs>
</svg>
